<?xml version="1.0" encoding="UTF-8"?>
<svg width="256" height="256" viewBox="0 0 256 256" xmlns="http://www.w3.org/2000/svg">

  <defs>
    <linearGradient id="blueGradient" x1="0%" y1="0%" x2="100%" y2="100%">
      <stop offset="0%" stop-color="#1DA1F2"/>
      <stop offset="100%" stop-color="#0B3D91"/>
    </linearGradient>
  </defs>

  <!-- Calendar Body -->
  <rect x="32" y="48" width="140" height="130" rx="18" fill="url(#blueGradient)" />

  <!-- Calendar Top Rings -->
  <rect x="60" y="28" width="20" height="36" rx="10" fill="#1DA1F2"/>
  <rect x="124" y="28" width="20" height="36" rx="10" fill="#0B3D91"/>

  <!-- Calendar Inner Panel -->
  <rect x="44" y="78" width="116" height="88" rx="10" fill="white"/>

  <!-- Calendar Squares -->
  <rect x="60" y="96" width="22" height="22" rx="4" fill="#1DA1F2"/>
  <rect x="92" y="96" width="22" height="22" rx="4" fill="#0B3D91"/>
  <rect x="60" y="128" width="22" height="22" rx="4" fill="#1DA1F2"/>

  <!-- Clock -->
  <circle cx="164" cy="156" r="60" fill="url(#blueGradient)"/>
  <circle cx="164" cy="156" r="48" fill="white"/>

  <!-- Clock Hands -->
  <line x1="164" y1="156" x2="164" y2="120" stroke="#0B3D91" stroke-width="6" stroke-linecap="round"/>
  <line x1="164" y1="156" x2="198" y2="146" stroke="#0B3D91" stroke-width="6" stroke-linecap="round"/>

  <!-- Check Badge -->
  <circle cx="208" cy="196" r="28" fill="#0B3D91"/>
  <path d="M195 196 L205 206 L222 185" stroke="white" stroke-width="6" fill="none" stroke-linecap="round" stroke-linejoin="round"/>

</svg>
